<svg xmlns="http://www.w3.org/2000/svg" width="600" height="400" viewBox="0 0 600 400"><rect width="100%" height="100%" fill="#a0c4ff"/><path fill="#ffffff" d="M131.94 213.345h9.92q2.74 0 4.6-.66t2.98-1.75q1.11-1.1 1.6-2.56.5-1.46.5-3.1 0-1.72-.55-3.09-.55-1.36-1.72-2.33-1.16-.97-3.01-1.48-1.84-.51-4.43-.51h-9.89zm8.35-37.53h-8.35v15.26h7.81q5.03 0 7.61-1.82 2.57-1.83 2.57-5.81 0-4.12-2.34-5.87-2.33-1.76-7.3-1.76m-18.17-7.59h18.17q5.19 0 8.87.99 3.69.98 6.05 2.81 2.35 1.82 3.44 4.41 1.1 2.6 1.1 5.84 0 1.87-.55 3.56-.55 1.7-1.7 3.18t-2.92 2.68q-1.77 1.21-4.21 2.04 10.88 2.45 10.88 11.76 0 3.36-1.28 6.2-1.28 2.85-3.72 4.91-2.45 2.06-6.03 3.23-3.57 1.17-8.17 1.17h-19.93zm66.43 43.11v-6.32q-3.91.19-6.57.68-2.67.49-4.27 1.26-1.61.76-2.3 1.79-.7 1.02-.7 2.22 0 2.38 1.41 3.4 1.4 1.02 3.67 1.02 2.77 0 4.8-1 2.02-1.01 3.96-3.05m-19.06-19.68-1.6-2.88q6.46-5.91 15.55-5.91 3.28 0 5.87 1.07 2.6 1.08 4.38 3 1.79 1.91 2.72 4.58.93 2.66.93 5.84v23.65h-4.08q-1.28 0-1.97-.38-.7-.39-1.1-1.55l-.8-2.71q-1.43 1.28-2.78 2.25t-2.81 1.62q-1.46.66-3.12 1.01-1.66.34-3.67.34-2.37 0-4.38-.63-2-.64-3.46-1.92t-2.27-3.18q-.8-1.89-.8-4.41 0-1.43.47-2.83.48-1.41 1.56-2.68 1.07-1.28 2.79-2.41 1.71-1.13 4.21-1.97t5.83-1.37q3.32-.53 7.59-.64v-2.19q0-3.76-1.61-5.57-1.6-1.8-4.63-1.8-2.19 0-3.64.51-1.44.51-2.53 1.15-1.1.63-1.99 1.15-.9.51-1.99.51-.95 0-1.61-.5-.65-.49-1.06-1.15m45.34 2.85v16.79q1.53 1.86 3.34 2.63 1.8.77 3.81.77 2.08 0 3.74-.75t2.83-2.34 1.79-4.05.62-5.89q0-6.17-2.04-8.93-2.05-2.75-5.88-2.75-2.59 0-4.53 1.18-1.93 1.19-3.68 3.34m0-27.74v21.39q2.26-2.37 5.02-3.78 2.75-1.4 6.29-1.4 3.25 0 5.86 1.27 2.61 1.28 4.45 3.67 1.85 2.39 2.83 5.79.99 3.39.99 7.63 0 4.56-1.13 8.28-1.13 3.73-3.23 6.37-2.1 2.65-5.06 4.11t-6.57 1.46q-1.75 0-3.17-.35-1.43-.35-2.63-.97-1.21-.62-2.21-1.51-1-.9-1.92-1.99l-.4 2.52q-.22.95-.75 1.35t-1.44.4h-5.95v-54.24zm59.2 16.79h7.23l-20.41 47.74q-.4.95-1.04 1.44-.63.5-1.95.5h-6.71l7-15.04-15.14-34.64h7.92q1.05 0 1.66.51.6.51.89 1.17l7.96 19.42q.4.98.67 1.97.28.98.53 2.01.33-1.03.66-2.03t.73-1.99l7.52-19.38q.29-.73.97-1.2.67-.48 1.51-.48m61.43-10.36-2.45 4.63q-.43.77-.93 1.11-.49.35-1.22.35-.77 0-1.66-.57-.89-.56-2.13-1.25-1.25-.7-2.91-1.26-1.66-.57-3.92-.57-2.04 0-3.58.49-1.53.5-2.57 1.37-1.04.88-1.55 2.1t-.51 2.68q0 1.87 1.04 3.11t2.75 2.11q1.72.88 3.91 1.57 2.19.7 4.49 1.48 2.3.79 4.49 1.83t3.9 2.62q1.72 1.59 2.76 3.89t1.04 5.59q0 3.57-1.22 6.69-1.23 3.12-3.58 5.44t-5.75 3.65q-3.39 1.33-7.77 1.33-2.52 0-4.97-.49-2.44-.49-4.69-1.4-2.24-.92-4.21-2.19-1.97-1.28-3.51-2.85l2.89-4.71q.36-.51.94-.86.59-.34 1.25-.34.91 0 1.97.74 1.06.75 2.52 1.67 1.46.91 3.41 1.66 1.95.74 4.69.74 4.2 0 6.5-1.99 2.29-1.98 2.29-5.71 0-2.08-1.04-3.39-1.04-1.32-2.75-2.21-1.72-.89-3.91-1.51-2.19-.63-4.45-1.36t-4.45-1.75-3.91-2.66q-1.71-1.64-2.75-4.11-1.04-2.46-1.04-6.08 0-2.88 1.15-5.62 1.15-2.73 3.34-4.85t5.4-3.4q3.21-1.27 7.37-1.27 4.67 0 8.61 1.46 3.95 1.46 6.72 4.09m8.36 10.36h9.05v37.45h-9.05zm10.29-10.91q0 1.17-.47 2.19-.48 1.02-1.26 1.79-.79.76-1.85 1.22-1.05.46-2.26.46-1.17 0-2.21-.46t-1.8-1.22q-.77-.77-1.23-1.79-.45-1.02-.45-2.19 0-1.21.45-2.27.46-1.05 1.23-1.82.76-.77 1.8-1.22 1.04-.46 2.21-.46 1.21 0 2.26.46 1.06.45 1.85 1.22.78.77 1.26 1.82.47 1.06.47 2.27m20.44 48.94q-4.89 0-7.5-2.75-2.61-2.76-2.61-7.61v-20.92h-3.83q-.73 0-1.24-.47-.51-.48-.51-1.42v-3.58l6.02-.99 1.9-10.22q.18-.73.69-1.13t1.31-.4h4.68v11.79h10v6.42h-10v20.3q0 1.75.85 2.74.86.98 2.36.98.84 0 1.4-.2.57-.2.99-.42t.75-.42.65-.2q.41 0 .66.2.26.2.55.6l2.7 4.38q-1.97 1.65-4.53 2.48-2.55.84-5.29.84m27.16 0q-4.89 0-7.5-2.75-2.61-2.76-2.61-7.61v-20.92h-3.84q-.73 0-1.24-.47-.51-.48-.51-1.42v-3.58l6.03-.99 1.89-10.22q.19-.73.7-1.13t1.31-.4h4.67v11.79h10v6.42h-10v20.3q0 1.75.86 2.74.86.98 2.35.98.84 0 1.41-.2t.99-.42.74-.42q.33-.2.66-.2.4 0 .66.2.25.2.55.6l2.7 4.38q-1.97 1.65-4.53 2.48-2.55.84-5.29.84m21.79-23.61h17.01q0-1.75-.5-3.3-.49-1.56-1.47-2.72-.99-1.17-2.5-1.85-1.52-.67-3.53-.67-3.9 0-6.15 2.22-2.24 2.23-2.86 6.32m22.99 5.44h-23.17q.21 2.88 1.02 4.98.8 2.1 2.11 3.47 1.32 1.37 3.13 2.04 1.8.68 3.99.68t3.78-.51q1.59-.52 2.77-1.14 1.19-.62 2.08-1.13.9-.51 1.74-.51 1.13 0 1.68.84l2.59 3.29q-1.5 1.75-3.36 2.93-1.86 1.19-3.89 1.9-2.02.71-4.12 1.01-2.1.29-4.07.29-3.91 0-7.26-1.3-3.36-1.29-5.84-3.83-2.49-2.54-3.91-6.28t-1.42-8.67q0-3.83 1.24-7.21 1.24-3.37 3.56-5.87 2.31-2.5 5.65-3.96t7.54-1.46q3.54 0 6.53 1.13 3 1.13 5.15 3.3t3.38 5.33q1.22 3.16 1.22 7.21 0 2.04-.44 2.76-.44.71-1.68.71m16.83-17.6.55 4.24q1.75-3.36 4.16-5.28 2.41-1.91 5.69-1.91 2.59 0 4.16 1.13l-.58 6.75q-.18.66-.53.93-.35.28-.93.28-.55 0-1.62-.19-1.08-.18-2.1-.18-1.5 0-2.67.44t-2.1 1.26-1.64 1.99-1.33 2.66v23.07h-9.02v-37.45h5.3q1.38 0 1.93.49.55.5.73 1.77"/></svg>