<svg xmlns="http://www.w3.org/2000/svg" width="600" height="450" viewBox="0 0 600 450"><rect width="100%" height="100%" fill="#bde0fe"/><path fill="#ffffff" d="M132.815 199.05v22.12h2.3q1.38 0 2.3-.38.91-.39 1.57-1.23l14.56-18.43q.91-1.17 1.92-1.62 1-.46 2.53-.46h8.47l-17.77 21.94q-1.57 2.01-3.25 2.84 1.2.44 2.17 1.23.97.78 1.84 2.06l18.33 24.71h-8.66q-1.75 0-2.61-.49-.85-.5-1.44-1.44l-14.93-19.5q-.69-.98-1.6-1.38t-2.63-.4h-3.1v23.21h-9.82v-52.78zm39.09 15.33h9.05v37.45h-9.05zm10.29-10.91q0 1.17-.47 2.19-.48 1.02-1.26 1.79-.79.76-1.84 1.22-1.06.46-2.27.46-1.17 0-2.21-.46t-1.8-1.22q-.77-.77-1.23-1.79-.45-1.02-.45-2.19 0-1.21.45-2.27.46-1.05 1.23-1.82.76-.77 1.8-1.22 1.04-.46 2.21-.46 1.21 0 2.27.46 1.05.45 1.84 1.22.78.77 1.26 1.82.47 1.06.47 2.27m32.85 14.96-2.04 3.25q-.37.59-.77.82-.4.24-1.02.24-.66 0-1.41-.37-.74-.36-1.73-.82-.98-.45-2.24-.82-1.26-.36-2.98-.36-2.66 0-4.18 1.13-1.51 1.13-1.51 2.95 0 1.21.78 2.03.79.82 2.08 1.44 1.3.62 2.94 1.12 1.64.49 3.34 1.07 1.7.59 3.34 1.33 1.64.75 2.94 1.9 1.29 1.15 2.08 2.76.78 1.6.78 3.87 0 2.7-.96 4.98-.97 2.28-2.87 3.94t-4.69 2.59-6.44.93q-1.94 0-3.78-.34-1.84-.35-3.54-.97t-3.14-1.46-2.53-1.82l2.08-3.44q.4-.62.94-.94.55-.33 1.39-.33t1.59.47q.75.48 1.73 1.02.99.55 2.32 1.03 1.33.47 3.38.47 1.6 0 2.75-.38 1.15-.39 1.9-1.01t1.1-1.44q.34-.82.34-1.7 0-1.31-.78-2.15-.79-.84-2.08-1.46-1.3-.62-2.96-1.11-1.66-.5-3.39-1.08-1.74-.58-3.4-1.37-1.66-.78-2.95-1.99-1.3-1.2-2.09-2.95-.78-1.76-.78-4.24 0-2.3.91-4.38.92-2.08 2.69-3.63t4.41-2.48q2.65-.93 6.12-.93 3.86 0 7.04 1.27 3.18 1.28 5.29 3.36m26.98 23.73v-6.32q-3.91.19-6.57.68-2.67.49-4.27 1.26-1.61.76-2.3 1.79-.7 1.02-.7 2.22 0 2.38 1.41 3.4 1.4 1.02 3.67 1.02 2.77 0 4.8-1 2.02-1.01 3.96-3.05m-19.06-19.68-1.6-2.88q6.46-5.91 15.55-5.91 3.28 0 5.87 1.07 2.59 1.08 4.38 3 1.79 1.91 2.72 4.58.93 2.66.93 5.84v23.65h-4.09q-1.27 0-1.97-.38-.69-.39-1.09-1.55l-.8-2.71q-1.43 1.28-2.78 2.25t-2.81 1.62q-1.46.66-3.12 1.01-1.66.34-3.67.34-2.37 0-4.38-.63-2.01-.64-3.47-1.92t-2.26-3.18q-.8-1.89-.8-4.41 0-1.43.47-2.83.48-1.41 1.55-2.68 1.08-1.28 2.8-2.41 1.71-1.13 4.21-1.97t5.82-1.37q3.33-.53 7.6-.64v-2.19q0-3.76-1.61-5.57-1.61-1.8-4.64-1.8-2.19 0-3.63.51t-2.53 1.15q-1.1.63-1.99 1.15-.9.51-1.99.51-.95 0-1.61-.5-.66-.49-1.06-1.15m45.34-24.89v20.81q2.19-2.05 4.81-3.33 2.63-1.27 6.17-1.27 3.07 0 5.44 1.04t3.96 2.92 2.41 4.49.82 5.75v23.83h-9.01V228q0-3.44-1.57-5.32-1.57-1.87-4.78-1.87-2.34 0-4.38 1.05-2.05 1.06-3.87 2.89v27.08h-9.02v-54.24zm61.13 1.46v22.12h2.3q1.39 0 2.3-.38.92-.39 1.57-1.23l14.57-18.43q.91-1.17 1.91-1.62 1.01-.46 2.54-.46h8.47l-17.78 21.94q-1.57 2.01-3.25 2.84 1.21.44 2.17 1.23.97.78 1.85 2.06l18.32 24.71h-8.65q-1.75 0-2.61-.49-.86-.5-1.44-1.44l-14.93-19.5q-.69-.98-1.61-1.38-.91-.4-2.62-.4h-3.11v23.21h-9.81v-52.78zm58.59 43.11v-6.32q-3.91.19-6.57.68-2.67.49-4.27 1.26-1.61.76-2.3 1.79-.7 1.02-.7 2.22 0 2.38 1.41 3.4 1.4 1.02 3.67 1.02 2.77 0 4.8-1 2.02-1.01 3.96-3.05m-19.06-19.68-1.6-2.88q6.46-5.91 15.55-5.91 3.28 0 5.87 1.07 2.59 1.08 4.38 3 1.79 1.91 2.72 4.58.93 2.66.93 5.84v23.65h-4.09q-1.27 0-1.97-.38-.69-.39-1.09-1.55l-.8-2.71q-1.43 1.28-2.78 2.25t-2.81 1.62q-1.46.66-3.12 1.01-1.66.34-3.67.34-2.37 0-4.38-.63-2.01-.64-3.47-1.92t-2.26-3.18q-.8-1.89-.8-4.41 0-1.43.47-2.83.48-1.41 1.55-2.68 1.08-1.28 2.8-2.41 1.71-1.13 4.21-1.97t5.82-1.37q3.33-.53 7.6-.64v-2.19q0-3.76-1.61-5.57-1.61-1.8-4.64-1.8-2.19 0-3.63.51t-2.53 1.15q-1.1.63-1.99 1.15-.9.51-1.99.51-.95 0-1.61-.5-.66-.49-1.06-1.15m45.34 29.35h-9.02v-37.45h5.51q1.75 0 2.3 1.64l.59 2.78q.98-1.1 2.06-2.01 1.07-.91 2.3-1.57 1.22-.66 2.63-1.04 1.4-.38 3.08-.38 3.54 0 5.82 1.91 2.28 1.92 3.41 5.1.88-1.87 2.19-3.2 1.32-1.33 2.89-2.17t3.34-1.24 3.56-.4q3.1 0 5.51.95t4.05 2.77q1.64 1.83 2.5 4.45.86 2.63.86 6.03v23.83h-9.02V228q0-3.58-1.57-5.39-1.57-1.8-4.6-1.8-1.38 0-2.57.47t-2.08 1.37q-.89.89-1.41 2.24-.51 1.35-.51 3.11v23.83h-9.05V228q0-3.76-1.51-5.48-1.52-1.71-4.44-1.71-1.97 0-3.67.96-1.69.97-3.15 2.65zm52.41-37.45h9.05v37.45h-9.05zm10.29-10.91q0 1.17-.47 2.19-.48 1.02-1.26 1.79-.79.76-1.84 1.22-1.06.46-2.27.46-1.16 0-2.21-.46-1.04-.46-1.8-1.22-.77-.77-1.22-1.79-.46-1.02-.46-2.19 0-1.21.46-2.27.45-1.05 1.22-1.82.76-.77 1.8-1.22 1.05-.46 2.21-.46 1.21 0 2.27.46 1.05.45 1.84 1.22.78.77 1.26 1.82.47 1.06.47 2.27"/></svg>