<svg xmlns="http://www.w3.org/2000/svg" width="600" height="400" viewBox="0 0 600 400"><rect width="100%" height="100%" fill="#bde0fe"/><path fill="#ffffff" d="M128.665 200.395h5.42q2 0 3.49-.5 1.48-.5 2.47-1.43.98-.93 1.47-2.27.48-1.34.48-2.98 0-1.57-.48-2.84-.49-1.27-1.46-2.16t-2.46-1.36q-1.48-.48-3.51-.48h-5.42zm-7.27-19.63h12.69q3.92 0 6.78.92 2.86.91 4.73 2.56 1.86 1.65 2.76 3.94.91 2.3.91 5.03 0 2.83-.95 5.19-.94 2.36-2.83 4.07-1.89 1.7-4.74 2.64-2.85.95-6.66.95h-5.42v13.74h-7.27zm37.64 22h12.58q0-1.29-.36-2.44-.37-1.15-1.09-2.01-.73-.87-1.85-1.37t-2.61-.5q-2.89 0-4.55 1.65t-2.12 4.67m17.01 4.03h-17.14q.16 2.13.75 3.68.6 1.55 1.57 2.57.97 1.01 2.31 1.51 1.33.5 2.95.5t2.8-.38q1.17-.38 2.05-.84t1.54-.83q.66-.38 1.28-.38.84 0 1.24.62l1.92 2.43q-1.11 1.3-2.48 2.17-1.38.88-2.88 1.41-1.5.52-3.05.74-1.55.21-3.01.21-2.89 0-5.37-.95-2.49-.96-4.32-2.84-1.84-1.87-2.89-4.64-1.06-2.77-1.06-6.42 0-2.83.92-5.33.92-2.49 2.63-4.34 1.72-1.85 4.19-2.93t5.58-1.08q2.61 0 4.83.83 2.21.84 3.81 2.45 1.59 1.6 2.49 3.94.91 2.33.91 5.33 0 1.51-.33 2.04-.32.53-1.24.53m12.45-13.02.4 3.13q1.3-2.48 3.08-3.9 1.78-1.41 4.21-1.41 1.92 0 3.08.83l-.43 5q-.14.48-.39.69-.26.2-.69.2-.41 0-1.2-.14-.8-.13-1.55-.13-1.11 0-1.98.32-.86.33-1.55.93-.69.61-1.21 1.47-.53.87-.99 1.98v17.06h-6.67v-27.7h3.92q1.02 0 1.43.36.4.37.54 1.31m28.89 18.87v-4.67q-2.89.14-4.86.5-1.97.37-3.16.94-1.19.56-1.7 1.32-.51.75-.51 1.65 0 1.75 1.03 2.51 1.04.75 2.72.75 2.05 0 3.55-.74t2.93-2.26m-14.1-14.55-1.18-2.13q4.78-4.37 11.5-4.37 2.43 0 4.35.79 1.91.8 3.24 2.22 1.32 1.41 2.01 3.38.69 1.98.69 4.32v17.5h-3.03q-.94 0-1.46-.28-.51-.29-.81-1.15l-.59-2q-1.05.95-2.05 1.66-1 .72-2.08 1.2-1.08.49-2.31.75-1.23.25-2.71.25-1.76 0-3.24-.47-1.49-.47-2.57-1.42-1.08-.94-1.67-2.35-.6-1.4-.6-3.26 0-1.06.35-2.1.36-1.04 1.15-1.98.8-.95 2.07-1.78 1.27-.84 3.12-1.46t4.3-1.01q2.46-.39 5.62-.48v-1.62q0-2.78-1.19-4.11-1.19-1.34-3.43-1.34-1.62 0-2.69.38-1.06.38-1.87.85t-1.47.85-1.47.38q-.71 0-1.19-.37-.49-.36-.79-.85m61.35-5.99h5.07l-8.8 27.7h-5.34q-.92 0-1.27-1.19l-4.97-16.01q-.24-.81-.45-1.61-.2-.79-.33-1.6-.17.81-.37 1.63-.2.83-.44 1.64l-5.05 15.95q-.33 1.19-1.43 1.19h-5.13l-8.78-27.7h5.32q.73 0 1.24.35.52.35.68.89l3.97 14.8q.29 1.21.52 2.37t.39 2.32q.3-1.16.64-2.32t.71-2.37l4.59-14.85q.17-.54.64-.9.47-.35 1.15-.35h2.94q.7 0 1.2.35.5.36.66.9l4.46 14.85q.35 1.21.66 2.39.31 1.17.61 2.33.35-2.29 1-4.72l4.07-14.8q.19-.54.68-.89.48-.35 1.16-.35m23.49 20.54v-4.67q-2.89.14-4.86.5-1.97.37-3.16.94-1.19.56-1.7 1.32-.51.75-.51 1.65 0 1.75 1.03 2.51 1.04.75 2.72.75 2.05 0 3.55-.74t2.93-2.26m-14.1-14.55-1.18-2.13q4.78-4.37 11.5-4.37 2.43 0 4.35.79 1.91.8 3.24 2.22 1.32 1.41 2.01 3.38.69 1.98.69 4.32v17.5h-3.03q-.94 0-1.46-.28-.51-.29-.81-1.15l-.59-2q-1.05.95-2.05 1.66-1 .72-2.08 1.2-1.08.49-2.31.75-1.23.25-2.71.25-1.76 0-3.24-.47-1.49-.47-2.57-1.42-1.08-.94-1.67-2.35-.6-1.4-.6-3.26 0-1.06.35-2.1.36-1.04 1.15-1.98.8-.95 2.07-1.78 1.27-.84 3.12-1.46t4.3-1.01q2.46-.39 5.62-.48v-1.62q0-2.78-1.19-4.11-1.19-1.34-3.43-1.34-1.62 0-2.69.38-1.06.38-1.87.85t-1.47.85-1.47.38q-.71 0-1.19-.37-.49-.36-.79-.85m36.1 22.14q-3.61 0-5.55-2.04-1.93-2.04-1.93-5.63v-15.47h-2.83q-.54 0-.92-.35t-.38-1.05v-2.65l4.46-.73 1.4-7.56q.14-.54.52-.83.37-.3.97-.3h3.45v8.72h7.4v4.75h-7.4v15.01q0 1.3.64 2.03.63.73 1.74.73.62 0 1.04-.15t.73-.31.55-.31.49-.15q.29 0 .48.15t.41.45l2 3.24q-1.46 1.21-3.35 1.83t-3.92.62m32.3-6.42h15.6v5.99h-22.87v-39.04h7.27zm34.37-1.17v-4.67q-2.89.14-4.86.5-1.97.37-3.16.94-1.19.56-1.7 1.32-.52.75-.52 1.65 0 1.75 1.04 2.51 1.04.75 2.72.75 2.05 0 3.55-.74t2.93-2.26m-14.1-14.55-1.19-2.13q4.78-4.37 11.51-4.37 2.43 0 4.34.79 1.92.8 3.24 2.22 1.33 1.41 2.01 3.38.69 1.98.69 4.32v17.5h-3.02q-.95 0-1.46-.28-.51-.29-.81-1.15l-.59-2q-1.06.95-2.05 1.66-1 .72-2.08 1.2-1.08.49-2.31.75-1.23.25-2.72.25-1.75 0-3.24-.47-1.48-.47-2.56-1.42-1.08-.94-1.67-2.35-.6-1.4-.6-3.26 0-1.06.35-2.1t1.15-1.98q.8-.95 2.07-1.78 1.26-.84 3.11-1.46t4.31-1.01 5.62-.48v-1.62q0-2.78-1.19-4.11-1.19-1.34-3.43-1.34-1.62 0-2.69.38-1.06.38-1.87.85t-1.48.85q-.66.38-1.47.38-.7 0-1.18-.37-.49-.36-.79-.85m32.65-4.78.45 2.19q.84-.84 1.77-1.55.93-.72 1.97-1.22t2.23-.78 2.59-.28q2.27 0 4.03.77 1.75.77 2.93 2.16 1.17 1.39 1.78 3.32t.61 4.25v17.63h-6.67v-17.63q0-2.54-1.16-3.93-1.17-1.39-3.54-1.39-1.73 0-3.24.78-1.51.79-2.86 2.14v20.03h-6.67v-27.7h4.07q1.3 0 1.71 1.21m43.09 1.79-1.51 2.4q-.27.43-.57.61-.3.17-.76.17-.48 0-1.04-.27-.55-.27-1.28-.61-.73-.33-1.66-.6t-2.2-.27q-1.97 0-3.09.83-1.12.84-1.12 2.19 0 .89.58 1.5t1.54 1.07q.96.45 2.17.82 1.22.36 2.47.79 1.26.44 2.47.99 1.22.55 2.17 1.4.96.86 1.54 2.04.58 1.19.58 2.86 0 2-.71 3.69-.72 1.69-2.12 2.92t-3.47 1.91q-2.07.69-4.77.69-1.43 0-2.79-.25-1.36-.26-2.62-.72-1.25-.46-2.32-1.08t-1.88-1.35l1.54-2.54q.3-.46.7-.7.41-.24 1.03-.24t1.17.35q.56.35 1.29.75.73.41 1.71.76.99.35 2.5.35 1.19 0 2.04-.28.85-.29 1.4-.74.55-.46.81-1.07t.26-1.26q0-.97-.58-1.59t-1.54-1.08-2.19-.82q-1.23-.37-2.51-.8t-2.51-1.01-2.19-1.47-1.54-2.19-.58-3.13q0-1.7.68-3.24.67-1.54 1.98-2.69t3.27-1.84q1.96-.68 4.52-.68 2.86 0 5.21.94 2.35.95 3.92 2.49m5.53-3h6.7v27.7h-6.7zm7.62-8.07q0 .86-.35 1.61-.36.76-.94 1.33-.58.56-1.36.9t-1.67.34q-.87 0-1.64-.34t-1.33-.9q-.57-.57-.91-1.33-.34-.75-.34-1.61 0-.9.34-1.68t.91-1.35q.56-.57 1.33-.9.77-.34 1.64-.34.89 0 1.67.34.78.33 1.36.9t.94 1.35q.35.78.35 1.68m20.52 28.61v-4.67q-2.89.14-4.86.5-1.97.37-3.16.94-1.19.56-1.7 1.32-.52.75-.52 1.65 0 1.75 1.04 2.51 1.04.75 2.72.75 2.05 0 3.55-.74t2.93-2.26m-14.1-14.55-1.19-2.13q4.78-4.37 11.51-4.37 2.43 0 4.34.79 1.92.8 3.24 2.22 1.33 1.41 2.01 3.38.69 1.98.69 4.32v17.5h-3.02q-.95 0-1.46-.28-.51-.29-.81-1.15l-.59-2q-1.06.95-2.05 1.66-1 .72-2.08 1.2-1.08.49-2.31.75-1.23.25-2.72.25-1.75 0-3.24-.47-1.48-.47-2.56-1.42-1.08-.94-1.67-2.35-.6-1.4-.6-3.26 0-1.06.35-2.1t1.15-1.98q.8-.95 2.07-1.78 1.26-.84 3.11-1.46t4.31-1.01 5.62-.48v-1.62q0-2.78-1.19-4.11-1.19-1.34-3.43-1.34-1.62 0-2.69.38-1.06.38-1.87.85t-1.48.85q-.66.38-1.47.38-.7 0-1.18-.37-.49-.36-.79-.85"/></svg>