<svg xmlns="http://www.w3.org/2000/svg" width="600" height="400" viewBox="0 0 600 400"><rect width="100%" height="100%" fill="#e0e1dd"/><path fill="#ffffff" d="M123.815 197.185h3.61q1.34 0 2.33-.34.99-.33 1.64-.95.66-.62.98-1.51.33-.89.33-1.99 0-1.04-.33-1.89-.32-.85-.97-1.44t-1.64-.91q-.99-.31-2.34-.31h-3.61zm-4.85-13.09h8.46q2.61 0 4.52.61 1.91.62 3.15 1.71 1.24 1.1 1.85 2.63.6 1.53.6 3.35 0 1.89-.63 3.46-.63 1.58-1.89 2.71-1.26 1.14-3.16 1.77t-4.44.63h-3.61v9.16h-4.85zm25.1 14.67h8.38q0-.86-.24-1.63-.24-.76-.73-1.34-.48-.57-1.23-.91-.75-.33-1.74-.33-1.92 0-3.03 1.1t-1.41 3.11m11.34 2.68h-11.43q.1 1.43.5 2.46.4 1.04 1.04 1.71.65.68 1.54 1.01t1.97.33 1.87-.25q.78-.25 1.37-.56.58-.3 1.02-.56.44-.25.86-.25.55 0 .82.42l1.28 1.62q-.74.86-1.65 1.44-.92.59-1.92.94t-2.04.5q-1.03.14-2 .14-1.93 0-3.58-.64-1.66-.64-2.88-1.89-1.23-1.25-1.93-3.1-.7-1.84-.7-4.27 0-1.89.61-3.56.61-1.66 1.76-2.89 1.14-1.24 2.79-1.96 1.64-.72 3.71-.72 1.75 0 3.22.56 1.48.56 2.54 1.63t1.67 2.63q.6 1.56.6 3.55 0 1.01-.22 1.36-.21.35-.82.35m4.37-18.07h4.45v15.32h.82q.45 0 .72-.12.26-.11.53-.47l4.59-5.67q.28-.38.63-.58.36-.2.91-.2h4.07l-5.74 6.86q-.61.81-1.33 1.24.38.27.67.63.3.36.57.78l6.16 8.96h-4.02q-.52 0-.9-.17t-.63-.62l-4.71-7q-.26-.42-.53-.54-.27-.13-.81-.13h-1v8.46h-4.45zm22.75 15.39h8.39q0-.86-.24-1.63-.25-.76-.73-1.34-.49-.57-1.24-.91-.74-.33-1.73-.33-1.93 0-3.04 1.1-1.1 1.1-1.41 3.11m11.34 2.68h-11.43q.11 1.43.51 2.46.39 1.04 1.04 1.71.65.68 1.54 1.01t1.97.33 1.86-.25q.79-.25 1.37-.56.59-.3 1.03-.56.44-.25.85-.25.56 0 .83.42l1.28 1.62q-.74.86-1.66 1.44-.92.59-1.92.94-.99.35-2.03.5-1.03.14-2.01.14-1.92 0-3.58-.64-1.65-.64-2.88-1.89-1.22-1.25-1.92-3.1-.71-1.84-.71-4.27 0-1.89.62-3.56.61-1.66 1.75-2.89 1.14-1.24 2.79-1.96t3.72-.72q1.74 0 3.22.56t2.54 1.63 1.66 2.63q.61 1.56.61 3.55 0 1.01-.22 1.36t-.83.35m8.3-8.67.27 2.09q.86-1.66 2.05-2.61 1.19-.94 2.81-.94 1.28 0 2.05.56l-.29 3.33q-.09.32-.26.46-.17.13-.46.13-.27 0-.8-.09t-1.03-.09q-.74 0-1.32.22-.57.21-1.03.62-.46.4-.81.98t-.66 1.31v11.38h-4.44v-18.47h2.61q.68 0 .95.24.27.25.36.88m9.65-1.12h4.46v19.1q0 1.21-.31 2.27-.32 1.06-1.01 1.86t-1.82 1.26q-1.12.46-2.74.46-.63 0-1.17-.08t-1.12-.26l.16-2.4q.06-.36.29-.45.23-.1.9-.1t1.12-.14q.46-.13.73-.43t.39-.78q.12-.49.12-1.21zm5.07-5.38q0 .58-.23 1.08t-.62.88-.92.6q-.53.23-1.12.23-.58 0-1.08-.23-.51-.22-.89-.6-.37-.38-.6-.88-.22-.5-.22-1.08 0-.59.22-1.12.23-.52.6-.9.38-.37.89-.6.5-.22 1.08-.22.59 0 1.12.22.53.23.92.6.39.38.62.9.23.53.23 1.12m13.68 19.08v-3.11q-1.92.09-3.24.33-1.31.24-2.1.62t-1.14.88q-.34.51-.34 1.1 0 1.17.7 1.67.69.51 1.8.51 1.37 0 2.37-.5 1-.49 1.95-1.5m-9.39-9.7-.79-1.42q3.18-2.92 7.66-2.92 1.62 0 2.9.53t2.16 1.48q.88.94 1.34 2.26.46 1.31.46 2.88v11.66h-2.01q-.63 0-.98-.19-.34-.19-.54-.76l-.39-1.34q-.7.63-1.37 1.11t-1.39.8q-.72.33-1.53.5-.82.17-1.81.17-1.17 0-2.16-.32-.99-.31-1.71-.94t-1.12-1.57q-.4-.93-.4-2.18 0-.7.24-1.39.23-.69.76-1.32t1.38-1.19 2.08-.97q1.23-.42 2.87-.68t3.74-.31v-1.08q0-1.86-.79-2.75t-2.28-.89q-1.08 0-1.79.25-.72.25-1.26.57-.54.31-.98.57-.44.25-.98.25-.47 0-.79-.25-.32-.24-.52-.56m32.2.83h3.02q1.37 0 2.39-.35 1.02-.34 1.67-.94.66-.6.98-1.43.33-.83.33-1.82 0-1.98-1.31-3.04-1.3-1.06-3.98-1.06h-3.1zm8.96 4.03 6.52 9.61h-4.37q-1.25 0-1.8-.97l-5.48-8.34q-.3-.46-.67-.66t-1.09-.2h-2.07v10.17h-4.84v-26.03h7.94q2.64 0 4.54.55t3.12 1.54q1.21.99 1.79 2.37.57 1.37.57 3.03 0 1.31-.38 2.48-.39 1.17-1.12 2.13-.73.95-1.8 1.67t-2.44 1.14q.47.27.86.63.4.37.72.88m20.11-8.86h4.45v18.47h-2.72q-.88 0-1.12-.81l-.3-1.48q-1.14 1.16-2.51 1.87-1.36.71-3.22.71-1.51 0-2.67-.52-1.16-.51-1.95-1.44-.8-.94-1.2-2.23-.41-1.28-.41-2.83v-11.74h4.45v11.74q0 1.69.78 2.62.79.92 2.35.92 1.15 0 2.16-.51t1.91-1.41zm13.28 18.47h-4.44v-18.47h2.72q.86 0 1.13.81l.29 1.37q.48-.54 1.02-.99.53-.45 1.13-.77.6-.33 1.3-.52.69-.19 1.52-.19 1.74 0 2.87.95 1.12.94 1.68 2.51.43-.92 1.08-1.58.65-.65 1.42-1.07.78-.41 1.65-.61t1.75-.2q1.53 0 2.72.47t2 1.37 1.23 2.2q.43 1.29.43 2.97v11.75h-4.45v-11.75q0-1.77-.77-2.66-.78-.89-2.27-.89-.69 0-1.27.23-.59.24-1.03.68t-.69 1.11q-.25.66-.25 1.53v11.75h-4.47v-11.75q0-1.86-.74-2.7-.75-.85-2.19-.85-.97 0-1.81.48-.84.47-1.56 1.3zm35.46-4.77v-3.11q-1.92.09-3.24.33-1.31.24-2.1.62t-1.14.88q-.34.51-.34 1.1 0 1.17.7 1.67.69.51 1.8.51 1.37 0 2.37-.5 1-.49 1.95-1.5m-9.39-9.7-.79-1.42q3.18-2.92 7.66-2.92 1.62 0 2.9.53t2.16 1.48q.88.94 1.34 2.26.46 1.31.46 2.88v11.66h-2.01q-.63 0-.98-.19-.34-.19-.54-.76l-.39-1.34q-.7.63-1.37 1.11t-1.39.8q-.72.33-1.53.5-.82.17-1.81.17-1.17 0-2.16-.32-.99-.31-1.71-.94t-1.12-1.57q-.4-.93-.4-2.18 0-.7.24-1.39.23-.69.76-1.32t1.38-1.19 2.08-.97q1.23-.42 2.87-.68t3.74-.31v-1.08q0-1.86-.79-2.75t-2.28-.89q-1.08 0-1.79.25-.72.25-1.26.57-.54.31-.98.57-.44.25-.98.25-.47 0-.79-.25-.32-.24-.52-.56m22.35-12.28v10.26q1.08-1.01 2.38-1.64t3.04-.63q1.51 0 2.68.52 1.17.51 1.96 1.44.78.92 1.19 2.21.4 1.29.4 2.84v11.75h-4.45v-11.75q0-1.7-.77-2.62-.77-.93-2.36-.93-1.15 0-2.16.52t-1.91 1.42v13.36h-4.44v-26.75zm43.49.72v3.98h-7.85v22.05h-4.84v-22.05h-7.85v-3.98zm12.48 21.26v-3.11q-1.93.09-3.24.33-1.32.24-2.11.62t-1.13.88q-.35.51-.35 1.1 0 1.17.7 1.67.69.51 1.81.51 1.36 0 2.36-.5 1-.49 1.96-1.5m-9.4-9.7-.79-1.42q3.18-2.92 7.67-2.92 1.62 0 2.89.53 1.28.53 2.16 1.48.89.94 1.35 2.26.45 1.31.45 2.88v11.66h-2.01q-.63 0-.97-.19-.35-.19-.54-.76l-.4-1.34q-.7.63-1.37 1.11-.66.48-1.38.8-.72.33-1.54.5t-1.81.17q-1.17 0-2.16-.32-.99-.31-1.71-.94t-1.12-1.57q-.39-.93-.39-2.18 0-.7.23-1.39t.77-1.32q.53-.63 1.37-1.19.85-.56 2.08-.97 1.23-.42 2.87-.68t3.75-.31v-1.08q0-1.86-.8-2.75-.79-.89-2.28-.89-1.08 0-1.79.25t-1.25.57q-.54.31-.98.57-.45.25-.99.25-.46 0-.79-.25-.32-.24-.52-.56m21.76-3.19.31 1.46q.56-.56 1.18-1.04.62-.47 1.31-.81.69-.33 1.49-.52.79-.19 1.72-.19 1.52 0 2.69.52 1.17.51 1.95 1.44.78.92 1.19 2.21.4 1.29.4 2.84v11.75h-4.44v-11.75q0-1.7-.78-2.62-.77-.93-2.36-.93-1.15 0-2.16.52-1 .52-1.9 1.42v13.36h-4.45v-18.47h2.72q.86 0 1.13.81m23.2 7.98q.83 0 1.44-.23.62-.22 1.02-.62.41-.4.61-.95.21-.56.21-1.23 0-1.37-.82-2.17t-2.46-.8q-1.63 0-2.45.8t-.82 2.17q0 .65.21 1.21.2.56.61.96.4.41 1.02.63.62.23 1.43.23m5.03 10.51q0-.54-.33-.88-.32-.35-.88-.54-.56-.18-1.3-.27-.75-.09-1.59-.14-.84-.04-1.73-.08t-1.73-.14q-.74.41-1.2.97t-.46 1.29q0 .49.24.91.25.43.78.73.53.31 1.37.48.85.17 2.07.17 1.25 0 2.15-.19t1.48-.52q.59-.33.86-.79t.27-1m-.89-18.67h5.31v1.66q0 .79-.95.97l-1.66.31q.38.95.38 2.08 0 1.37-.55 2.48t-1.52 1.88-2.29 1.2q-1.33.42-2.86.42-.54 0-1.04-.05-.5-.06-.99-.15-.86.52-.86 1.17 0 .56.51.82t1.36.37q.84.11 1.92.13 1.08.03 2.22.12 1.13.09 2.21.32 1.08.22 1.93.71.84.48 1.36 1.32.51.84.51 2.15 0 1.23-.6 2.38-.61 1.15-1.75 2.05t-2.81 1.45q-1.66.55-3.79.55-2.08 0-3.63-.41-1.55-.4-2.58-1.08-1.02-.67-1.53-1.55-.5-.89-.5-1.84 0-1.3.78-2.17.79-.87 2.15-1.39-.73-.38-1.17-1.01-.43-.63-.43-1.66 0-.41.16-.85.15-.44.45-.88.29-.43.74-.82.45-.38 1.06-.69-1.4-.75-2.2-2.01t-.8-2.96q0-1.36.55-2.47t1.53-1.89 2.32-1.2q1.34-.41 2.92-.41 1.19 0 2.24.24 1.04.24 1.9.71m14.87 8.16q.83 0 1.44-.23.61-.22 1.02-.62.4-.4.61-.95.21-.56.21-1.23 0-1.37-.82-2.17t-2.46-.8-2.45.8q-.82.8-.82 2.17 0 .65.2 1.21.21.56.62.96.4.41 1.02.63.62.23 1.43.23m5.02 10.51q0-.54-.32-.88-.32-.35-.88-.54-.56-.18-1.31-.27-.74-.09-1.58-.14-.84-.04-1.73-.08t-1.74-.14q-.73.41-1.19.97t-.46 1.29q0 .49.24.91.24.43.78.73.53.31 1.37.48.85.17 2.07.17 1.24 0 2.14-.19t1.49-.52q.58-.33.85-.79t.27-1m-.88-18.67h5.31v1.66q0 .79-.95.97l-1.66.31q.38.95.38 2.08 0 1.37-.55 2.48t-1.52 1.88-2.29 1.2q-1.33.42-2.86.42-.54 0-1.04-.05-.51-.06-.99-.15-.87.52-.87 1.17 0 .56.52.82.51.26 1.36.37.84.11 1.92.13 1.08.03 2.22.12 1.13.09 2.21.32 1.08.22 1.93.71.84.48 1.36 1.32.51.84.51 2.15 0 1.23-.6 2.38-.61 1.15-1.75 2.05t-2.81 1.45q-1.66.55-3.79.55-2.09 0-3.63-.41-1.55-.4-2.58-1.08-1.02-.67-1.53-1.55-.5-.89-.5-1.84 0-1.3.78-2.17t2.15-1.39q-.74-.38-1.17-1.01t-.43-1.66q0-.41.15-.85.16-.44.45-.88.3-.43.75-.82.45-.38 1.06-.69-1.4-.75-2.2-2.01t-.8-2.96q0-1.36.55-2.47.54-1.11 1.53-1.89.98-.78 2.32-1.2 1.34-.41 2.92-.41 1.19 0 2.23.24 1.05.24 1.91.71m17.88 13.07v-3.11q-1.93.09-3.24.33-1.32.24-2.11.62t-1.13.88q-.35.51-.35 1.1 0 1.17.7 1.67.69.51 1.81.51 1.36 0 2.36-.5 1-.49 1.96-1.5m-9.4-9.7-.79-1.42q3.18-2.92 7.67-2.92 1.62 0 2.89.53 1.28.53 2.16 1.48.89.94 1.35 2.26.45 1.31.45 2.88v11.66h-2.01q-.63 0-.97-.19-.35-.19-.54-.76l-.4-1.34q-.7.63-1.37 1.11-.66.48-1.38.8-.72.33-1.54.5t-1.81.17q-1.17 0-2.16-.32-.99-.31-1.71-.94t-1.12-1.57q-.39-.93-.39-2.18 0-.7.23-1.39t.77-1.32q.53-.63 1.37-1.19.85-.56 2.08-.97 1.23-.42 2.87-.68t3.75-.31v-1.08q0-1.86-.8-2.75-.79-.89-2.28-.89-1.08 0-1.79.25t-1.25.57q-.54.31-.98.57-.45.25-.99.25-.46 0-.79-.25-.32-.24-.52-.56"/></svg>